{
  "accessors": [
    {
      "bufferView": 2,
      "componentType": 5126,
      "count": 530,
      "max": [
        1.9084850549697876,
        1.9052250385284424,
        1.298151969909668
      ],
      "min": [
        -1.9084850549697876,
        -1.9052259922027588,
        -0.4004350006580353
      ],
      "type": "VEC3"
    },
    {
      "bufferView": 2,
      "byteOffset": 6360,
      "componentType": 5126,
      "count": 530,
      "max": [
        0.9383171200752258,
        0.9387327432632446,
        0.9986419081687927
      ],
      "min": [
        -0.9383171200752258,
        -0.9387327432632446,
        -1.0
      ],
      "type": "VEC3"
    },
    {
      "bufferView": 1,
      "componentType": 5126,
      "count": 530,
      "max": [
        0.9784929752349854,
        0.9980080127716064
      ],
      "min": [
        0.00266700005158782,
        0.0037819999270141125
      ],
      "type": "VEC2"
    },
    {
      "bufferView": 0,
      "componentType": 5125,
      "count": 1872,
      "type": "SCALAR"
    }
  ],
  "asset": {
    "extras": {
      "author": "Luisa (https://sketchfab.com/LSep)",
      "license": "CC-BY-4.0 (http://creativecommons.org/licenses/by/4.0/)",
      "source": "https://sketchfab.com/3d-models/sombrero-f3d6340d2985423486ce7dd887fbcf99",
      "title": "Sombrero"
    },
    "generator": "Sketchfab-12.65.0",
    "version": "2.0"
  },
  "bufferViews": [
    {
      "buffer": 0,
      "byteLength": 7488,
      "name": "floatBufferViews",
      "target": 34963
    },
    {
      "buffer": 0,
      "byteLength": 4240,
      "byteOffset": 7488,
      "byteStride": 8,
      "name": "floatBufferViews",
      "target": 34962
    },
    {
      "buffer": 0,
      "byteLength": 12720,
      "byteOffset": 11728,
      "byteStride": 12,
      "name": "floatBufferViews",
      "target": 34962
    }
  ],
  "buffers": [
    {
      "byteLength": 24448,
      "uri": "scene.bin"
    }
  ],
  "images": [
    {
      "uri": "textures/blinn1SG_baseColor.jpeg"
    }
  ],
  "materials": [
    {
      "doubleSided": true,
      "name": "blinn1SG",
      "pbrMetallicRoughness": {
        "baseColorTexture": {
          "index": 0
        },
        "metallicFactor": 0.0,
        "roughnessFactor": 0.6
      }
    }
  ],
  "meshes": [
    {
      "name": "Object_0",
      "primitives": [
        {
          "attributes": {
            "NORMAL": 1,
            "POSITION": 0,
            "TEXCOORD_0": 2
          },
          "indices": 3,
          "material": 0,
          "mode": 4
        }
      ]
    }
  ],
  "nodes": [
    {
      "children": [
        1
      ],
      "matrix": [
        1.0,
        0.0,
        0.0,
        0.0,
        0.0,
        2.220446049250313e-16,
        -1.0,
        0.0,
        0.0,
        1.0,
        2.220446049250313e-16,
        0.0,
        0.0,
        0.0,
        0.0,
        1.0
      ],
      "name": "Sketchfab_model"
    },
    {
      "children": [
        2
      ],
      "name": "b6eb88005c704c23a277b639e9f5693c.obj.cleaner.materialmerger.gles"
    },
    {
      "mesh": 0,
      "name": "Object_2"
    }
  ],
  "samplers": [
    {
      "magFilter": 9729,
      "minFilter": 9987,
      "wrapS": 10497,
      "wrapT": 10497
    }
  ],
  "scene": 0,
  "scenes": [
    {
      "name": "Sketchfab_Scene",
      "nodes": [
        0
      ]
    }
  ],
  "textures": [
    {
      "sampler": 0,
      "source": 0
    }
  ]
}
